<svg width="18" height="19" viewBox="0 0 18 19" fill="none" xmlns="http://www.w3.org/2000/svg">
<path d="M18 16.62V9.88701C18 9.34446 17.8896 8.80758 17.6756 8.30903C17.4616 7.81048 17.1483 7.36069 16.755 6.98701L10.378 0.930007C10.0063 0.576892 9.51319 0.380005 9.0005 0.380005C8.48781 0.380005 7.9947 0.576892 7.623 0.930007L1.245 6.98701C0.851652 7.36069 0.538436 7.81048 0.324404 8.30903C0.110372 8.80758 -5.84641e-07 9.34446 0 9.88701V16.62C0 17.1504 0.210714 17.6591 0.585786 18.0342C0.960859 18.4093 1.46957 18.62 2 18.62H16C16.5304 18.62 17.0391 18.4093 17.4142 18.0342C17.7893 17.6591 18 17.1504 18 16.62Z" fill="url(#paint0_linear_1609_1154)"/>
<defs>
<linearGradient id="paint0_linear_1609_1154" x1="9" y1="0.380005" x2="9" y2="18.62" gradientUnits="userSpaceOnUse">
<stop stop-color="#FFB167"/>
<stop offset="1" stop-color="#FF8919"/>
</linearGradient>
</defs>
</svg>
