<svg width="22" height="22" viewBox="0 0 22 22" fill="none" xmlns="http://www.w3.org/2000/svg">
<path d="M16.75 3H4.75C2.54086 3 0.75 4.79086 0.75 7V17C0.75 19.2091 2.54086 21 4.75 21H16.75C18.9591 21 20.75 19.2091 20.75 17V7C20.75 4.79086 18.9591 3 16.75 3Z" fill="url(#paint0_linear_1609_1209)" stroke="url(#paint1_linear_1609_1209)" stroke-linecap="round" stroke-linejoin="round"/>
<path d="M6.75 1V5ZM14.75 1V5ZM0.75 9H20.75Z" fill="url(#paint2_linear_1609_1209)"/>
<path d="M6.75 1V5M14.75 1V5M0.75 9H20.75" stroke="url(#paint3_linear_1609_1209)" stroke-linecap="round" stroke-linejoin="round"/>
<defs>
<linearGradient id="paint0_linear_1609_1209" x1="10.75" y1="3" x2="10.75" y2="21" gradientUnits="userSpaceOnUse">
<stop stop-color="#FFB167"/>
<stop offset="1" stop-color="#FF8919"/>
</linearGradient>
<linearGradient id="paint1_linear_1609_1209" x1="10.75" y1="3" x2="10.75" y2="21" gradientUnits="userSpaceOnUse">
<stop stop-color="#FFB167"/>
<stop offset="1" stop-color="#FF8919"/>
</linearGradient>
<linearGradient id="paint2_linear_1609_1209" x1="10.75" y1="1" x2="10.75" y2="9" gradientUnits="userSpaceOnUse">
<stop stop-color="#FFB167"/>
<stop offset="1" stop-color="#FF8919"/>
</linearGradient>
<linearGradient id="paint3_linear_1609_1209" x1="10.75" y1="1" x2="10.75" y2="9" gradientUnits="userSpaceOnUse">
<stop stop-color="#FFB167"/>
<stop offset="1" stop-color="#FF8919"/>
</linearGradient>
</defs>
</svg>
