<svg width="22" height="19" viewBox="0 0 22 19" fill="none" xmlns="http://www.w3.org/2000/svg">
<path d="M11.25 5.00001C12 2.03938 14.8327 0.527662 21 0.500005C21.0986 0.499633 21.1963 0.518779 21.2875 0.556338C21.3786 0.593898 21.4614 0.649128 21.5312 0.718846C21.6009 0.788564 21.6561 0.871391 21.6937 0.962553C21.7312 1.05372 21.7504 1.15141 21.75 1.25001V14.75C21.75 14.9489 21.671 15.1397 21.5303 15.2803C21.3897 15.421 21.1989 15.5 21 15.5C15 15.5 12.682 16.7098 11.25 18.5C9.82641 16.7188 7.50001 15.5 1.50001 15.5C1.03688 15.5 0.750005 15.1227 0.750005 14.6595V1.25001C0.749633 1.15141 0.768779 1.05372 0.806338 0.962553C0.843898 0.871391 0.899128 0.788564 0.968846 0.718846C1.03856 0.649128 1.12139 0.593898 1.21255 0.556338C1.30372 0.518779 1.40141 0.499633 1.50001 0.500005C7.66735 0.527662 10.5 2.03938 11.25 5.00001ZM11.25 5.00001V18.5Z" fill="url(#paint0_linear_1609_1179)"/>
<defs>
<linearGradient id="paint0_linear_1609_1179" x1="11.25" y1="0.5" x2="11.25" y2="18.5" gradientUnits="userSpaceOnUse">
<stop stop-color="#FFB167"/>
<stop offset="1" stop-color="#FF8919"/>
</linearGradient>
</defs>
</svg>
