<svg width="25" height="24" viewBox="0 0 25 24" fill="none" xmlns="http://www.w3.org/2000/svg">
<path d="M12.5 7.50001C13.25 4.53938 16.0827 3.02766 22.25 3.00001C22.3486 2.99963 22.4463 3.01878 22.5375 3.05634C22.6286 3.0939 22.7114 3.14913 22.7812 3.21885C22.8509 3.28856 22.9061 3.37139 22.9437 3.46255C22.9812 3.55372 23.0004 3.65141 23 3.75001V17.25C23 17.4489 22.921 17.6397 22.7803 17.7803C22.6397 17.921 22.4489 18 22.25 18C16.25 18 13.932 19.2098 12.5 21M12.5 7.50001C11.75 4.53938 8.91735 3.02766 2.75001 3.00001C2.65141 2.99963 2.55372 3.01878 2.46255 3.05634C2.37139 3.0939 2.28856 3.14913 2.21885 3.21885C2.14913 3.28856 2.0939 3.37139 2.05634 3.46255C2.01878 3.55372 1.99963 3.65141 2.00001 3.75001V17.1595C2.00001 17.6227 2.28688 18 2.75001 18C8.75001 18 11.0764 19.2188 12.5 21M12.5 7.50001V21" stroke="#8C8C8C" stroke-linecap="round" stroke-linejoin="round"/>
</svg>
