<svg width="16" height="16" viewBox="0 0 16 16" fill="none" xmlns="http://www.w3.org/2000/svg">
<path d="M10.316 3.93972L11.728 5.35066M11.224 2.69674L7.40602 6.51366C7.20875 6.7106 7.0742 6.96152 7.01935 7.23479L6.66669 8.99962L8.43202 8.64639C8.70535 8.59174 8.95602 8.45777 9.15335 8.2605L12.9714 4.44358C13.0861 4.32888 13.1771 4.19271 13.2392 4.04285C13.3013 3.89299 13.3332 3.73237 13.3332 3.57016C13.3332 3.40795 13.3013 3.24733 13.2392 3.09747C13.1771 2.94761 13.0861 2.81144 12.9714 2.69674C12.8566 2.58204 12.7204 2.49106 12.5705 2.42898C12.4206 2.36691 12.2599 2.33496 12.0977 2.33496C11.9354 2.33496 11.7748 2.36691 11.6249 2.42898C11.475 2.49106 11.3388 2.58204 11.224 2.69674Z" stroke="#8C8C8C" stroke-linecap="round" stroke-linejoin="round"/>
<path d="M12 10.3326V12.3321C12 12.6856 11.8595 13.0246 11.6095 13.2746C11.3594 13.5246 11.0203 13.665 10.6667 13.665H3.33333C2.97971 13.665 2.64057 13.5246 2.39052 13.2746C2.14048 13.0246 2 12.6856 2 12.3321V5.0008C2 4.64728 2.14048 4.30824 2.39052 4.05826C2.64057 3.80828 2.97971 3.66785 3.33333 3.66785H5.33333" stroke="#8C8C8C" stroke-linecap="round" stroke-linejoin="round"/>
</svg>
