<svg width="24" height="24" viewBox="0 0 24 24" fill="none" xmlns="http://www.w3.org/2000/svg">
<path d="M10.8 5.69995C10.8 6.09778 10.9581 6.47931 11.2394 6.76061C11.5207 7.04192 11.9022 7.19995 12.3 7.19995C12.6979 7.19995 13.0794 7.04192 13.3607 6.76061C13.642 6.47931 13.8 6.09778 13.8 5.69995C13.8 5.30213 13.642 4.92059 13.3607 4.63929C13.0794 4.35798 12.6979 4.19995 12.3 4.19995C11.9022 4.19995 11.5207 4.35798 11.2394 4.63929C10.9581 4.92059 10.8 5.30213 10.8 5.69995ZM10.8 11.7C10.8 12.0978 10.9581 12.4793 11.2394 12.7606C11.5207 13.0419 11.9022 13.2 12.3 13.2C12.6979 13.2 13.0794 13.0419 13.3607 12.7606C13.642 12.4793 13.8 12.0978 13.8 11.7C13.8 11.3021 13.642 10.9206 13.3607 10.6393C13.0794 10.358 12.6979 10.2 12.3 10.2C11.9022 10.2 11.5207 10.358 11.2394 10.6393C10.9581 10.9206 10.8 11.3021 10.8 11.7ZM10.8 17.7C10.8 18.0978 10.9581 18.4793 11.2394 18.7606C11.5207 19.0419 11.9022 19.2 12.3 19.2C12.6979 19.2 13.0794 19.0419 13.3607 18.7606C13.642 18.4793 13.8 18.0978 13.8 17.7C13.8 17.3021 13.642 16.9206 13.3607 16.6393C13.0794 16.358 12.6979 16.2 12.3 16.2C11.9022 16.2 11.5207 16.358 11.2394 16.6393C10.9581 16.9206 10.8 17.3021 10.8 17.7Z" fill="#8C8C8C"/>
</svg>
