<svg width="36" height="36" viewBox="0 0 36 36" fill="none" xmlns="http://www.w3.org/2000/svg">
<path d="M17.9964 3.60001C23.6646 3.60001 28.3356 7.80301 28.7676 13.239L28.7928 13.6404L28.8 14.0436L28.7982 20.5164L30.4632 24.516C30.5046 24.6132 30.5352 24.714 30.5586 24.8166L30.5874 24.9714L30.6018 25.209C30.5998 25.6062 30.4665 25.9916 30.2227 26.3051C29.9788 26.6186 29.6381 26.8427 29.2536 26.9424L29.0448 26.991L28.8018 27.009L22.5 27.0072L22.491 27.297C22.4187 28.4389 21.914 29.5105 21.0798 30.2936C20.2455 31.0767 19.1442 31.5125 18 31.5125C16.8558 31.5125 15.7545 31.0767 14.9202 30.2936C14.086 29.5105 13.5813 28.4389 13.509 27.297L13.5 27.0072H7.19819C7.04018 27.0075 6.88282 26.9869 6.73019 26.946L6.50699 26.8704C6.14364 26.7172 5.84063 26.449 5.64454 26.1069C5.44845 25.7648 5.37012 25.3678 5.42159 24.9768L5.45939 24.7464L5.53679 24.516L7.19819 20.5218L7.19999 14.0274L7.20719 13.6224C7.42859 8.01181 12.1878 3.60001 17.9964 3.60001ZM20.7 27.0072H15.3L15.3126 27.261C15.3732 27.8843 15.6485 28.4671 16.0915 28.9098C16.5344 29.3524 17.1175 29.6273 17.7408 29.6874L18 29.7C18.6709 29.7 19.3178 29.4502 19.8146 28.9994C20.3114 28.5485 20.6225 27.9288 20.6874 27.261L20.7 27.0072ZM17.9964 5.40001C13.275 5.40001 9.41039 8.86321 9.03239 13.293L9.00719 13.6746L8.99999 14.0436V20.7L8.93159 21.0456L7.19819 25.209L28.7226 25.2126L28.8036 25.209L27.0684 21.0456L27 20.7V14.0616L26.9928 13.6944C26.8038 9.06301 22.851 5.40001 17.9964 5.40001Z" fill="white"/>
</svg>
